<svg id="Capa_1" enable-background="new 0 0 512 512" height="512" viewBox="0 0 512 512" width="512" xmlns="http://www.w3.org/2000/svg"><g><g><path d="m504.5 273.6h-137.357c-4.143 0-7.5-3.357-7.5-7.5s3.357-7.5 7.5-7.5h137.357c4.143 0 7.5 3.357 7.5 7.5s-3.357 7.5-7.5 7.5z" fill="#90d8f9"/></g><g><path d="m355.357 273.6h-327.657c-4.143 0-7.5-3.357-7.5-7.5s3.357-7.5 7.5-7.5h327.657c4.143 0 7.5 3.357 7.5 7.5s-3.357 7.5-7.5 7.5z" fill="#90d8f9"/></g><g><path d="m464.001 107.717-34.346-38.28c-5.962-6.644-16.18-7.196-22.824-1.236l-38.28 34.346c-6.644 5.961-7.197 16.18-1.236 22.824 5.962 6.644 16.18 7.196 22.824 1.236l8.99-8.066c-18.963 155.783-152.018 276.861-312.837 276.861-8.927 0-16.163 7.236-16.163 16.163s7.236 16.163 16.163 16.163c46.904 0 92.415-9.19 135.266-27.315 41.381-17.502 78.542-42.556 110.451-74.464 31.908-31.909 56.962-69.07 74.464-110.451 12.963-30.647 21.329-62.66 25.058-95.565l8.409 9.373c3.192 3.557 7.605 5.368 12.035 5.368 3.844 0 7.703-1.363 10.789-4.132 6.645-5.962 7.199-16.181 1.237-22.825z" fill="#e28086"/></g><g><path d="m494.5 394.821h-60.813c-5.523 0-10-4.477-10-10v-27.325c0-5.523 4.477-10 10-10h60.813c5.523 0 10 4.477 10 10v27.325c0 5.523-4.477 10-10 10z" fill="#ffe07d"/></g><g><path d="m494.5 459.471h-60.813c-5.523 0-10-4.477-10-10v-27.325c0-5.523 4.477-10 10-10h60.813c5.523 0 10 4.477 10 10v27.325c0 5.523-4.477 10-10 10z" fill="#90d8f9"/></g><g><path d="m504.5 486.898h-469.297v-469.296c0-4.143-3.357-7.5-7.5-7.5s-7.5 3.357-7.5 7.5v47.048h-12.703c-4.143 0-7.5 3.357-7.5 7.5s3.357 7.5 7.5 7.5h12.703v33.488h-12.703c-4.143 0-7.5 3.357-7.5 7.5s3.357 7.5 7.5 7.5h12.703v33.487h-12.703c-4.143 0-7.5 3.357-7.5 7.5s3.357 7.5 7.5 7.5h12.703v33.488h-12.703c-4.143 0-7.5 3.357-7.5 7.5s3.357 7.5 7.5 7.5h12.703v33.487h-12.703c-4.143 0-7.5 3.357-7.5 7.5s3.357 7.5 7.5 7.5h12.703v33.488h-12.703c-4.143 0-7.5 3.357-7.5 7.5s3.357 7.5 7.5 7.5h12.703v33.487h-12.703c-4.143 0-7.5 3.357-7.5 7.5s3.357 7.5 7.5 7.5h12.703v33.488h-12.703c-4.143 0-7.5 3.357-7.5 7.5s3.357 7.5 7.5 7.5h12.703v75.333c0 4.143 3.357 7.5 7.5 7.5h476.797c4.143 0 7.5-3.357 7.5-7.5s-3.357-7.498-7.5-7.498z" fill="#30579d"/></g><g><g><path d="m159.643 43.437h-20.203c-4.143 0-7.5 3.357-7.5 7.5s3.357 7.5 7.5 7.5h2.602v22.806c0 4.143 3.357 7.5 7.5 7.5s7.5-3.357 7.5-7.5v-22.806h2.602c4.143 0 7.5-3.357 7.5-7.5s-3.359-7.5-7.501-7.5z" fill="#734d9d"/></g><g><path d="m66.38 109.112c1.182.682 2.471 1.006 3.743 1.006 2.592 0 5.113-1.345 6.502-3.751l1.301-2.253 19.75 11.402c1.182.682 2.471 1.006 3.743 1.006 2.592 0 5.113-1.345 6.502-3.751 2.071-3.587.842-8.174-2.745-10.245l-19.75-11.402 1.301-2.253c2.071-3.587.842-8.174-2.745-10.245-3.589-2.071-8.175-.844-10.245 2.745l-10.102 17.496c-2.072 3.587-.842 8.174 2.745 10.245z" fill="#734d9d"/></g><g><path d="m107.921 160.83c-2.071-3.587-6.66-4.815-10.245-2.745l-19.75 11.402-1.301-2.253c-2.07-3.588-6.659-4.815-10.245-2.745-3.587 2.071-4.816 6.658-2.745 10.245l10.102 17.497c1.389 2.406 3.91 3.751 6.502 3.751 1.272 0 2.562-.324 3.743-1.006 3.587-2.071 4.816-6.658 2.745-10.245l-1.301-2.254 19.75-11.403c3.587-2.07 4.816-6.657 2.745-10.244z" fill="#734d9d"/></g><g><path d="m159.643 215.165h-2.602v-22.806c0-4.143-3.357-7.5-7.5-7.5s-7.5 3.357-7.5 7.5v22.806h-2.602c-4.143 0-7.5 3.357-7.5 7.5s3.357 7.5 7.5 7.5h20.203c4.143 0 7.5-3.357 7.5-7.5s-3.357-7.5-7.499-7.5z" fill="#734d9d"/></g><g><path d="m232.702 164.489c-3.589-2.071-8.176-.843-10.245 2.745l-1.301 2.253-19.75-11.402c-3.589-2.071-8.175-.844-10.245 2.745-2.071 3.587-.842 8.174 2.745 10.245l19.75 11.403-1.301 2.254c-2.071 3.587-.842 8.174 2.745 10.245 1.182.682 2.471 1.006 3.743 1.006 2.592 0 5.113-1.345 6.502-3.751l10.102-17.497c2.072-3.588.842-8.174-2.745-10.246z" fill="#734d9d"/></g><g><path d="m191.161 112.771c1.389 2.406 3.91 3.751 6.502 3.751 1.272 0 2.562-.324 3.743-1.006l19.75-11.402 1.301 2.253c1.39 2.406 3.91 3.751 6.502 3.751 1.272 0 2.562-.324 3.743-1.006 3.587-2.071 4.816-6.658 2.745-10.245l-10.102-17.496c-2.072-3.587-6.659-4.815-10.245-2.745-3.587 2.071-4.816 6.658-2.745 10.245l1.301 2.253-19.75 11.402c-3.587 2.072-4.816 6.659-2.745 10.245z" fill="#734d9d"/></g><g><path d="m120.681 71.812c-2.07-3.587-6.657-4.815-10.245-2.745-3.587 2.071-4.816 6.658-2.745 10.245l7.576 13.123c1.389 2.406 3.91 3.751 6.502 3.751 1.272 0 2.562-.324 3.743-1.006 3.587-2.071 4.816-6.658 2.745-10.245z" fill="#734d9d"/></g><g><path d="m93.982 129.301h-15.152c-4.143 0-7.5 3.357-7.5 7.5s3.357 7.5 7.5 7.5h15.152c4.143 0 7.5-3.357 7.5-7.5s-3.357-7.5-7.5-7.5z" fill="#734d9d"/></g><g><path d="m125.512 178.421c-3.59-2.07-8.175-.843-10.245 2.745l-7.576 13.123c-2.071 3.587-.842 8.174 2.745 10.245 1.182.682 2.471 1.006 3.743 1.006 2.592 0 5.113-1.345 6.502-3.751l7.576-13.123c2.071-3.587.842-8.174-2.745-10.245z" fill="#734d9d"/></g><g><path d="m183.815 181.166c-2.07-3.588-6.657-4.814-10.245-2.745-3.587 2.071-4.816 6.658-2.745 10.245l7.576 13.123c1.389 2.406 3.91 3.751 6.502 3.751 1.272 0 2.562-.324 3.743-1.006 3.587-2.071 4.816-6.658 2.745-10.245z" fill="#734d9d"/></g><g><path d="m205.1 129.301c-4.143 0-7.5 3.357-7.5 7.5s3.357 7.5 7.5 7.5h15.153c4.143 0 7.5-3.357 7.5-7.5s-3.357-7.5-7.5-7.5z" fill="#734d9d"/></g><g><path d="m173.57 95.181c1.182.682 2.471 1.006 3.743 1.006 2.592 0 5.113-1.345 6.502-3.751l7.576-13.123c2.071-3.587.842-8.174-2.745-10.245-3.589-2.071-8.175-.843-10.245 2.745l-7.576 13.123c-2.071 3.586-.842 8.173 2.745 10.245z" fill="#734d9d"/></g></g><g><g><path d="m391.361 362.496h-20.203c-4.143 0-7.5-3.357-7.5-7.5s3.357-7.5 7.5-7.5h20.203c4.143 0 7.5 3.357 7.5 7.5s-3.357 7.5-7.5 7.5z" fill="#30579d"/></g></g><g><g><path d="m391.361 394.821h-20.203c-4.143 0-7.5-3.357-7.5-7.5s3.357-7.5 7.5-7.5h20.203c4.143 0 7.5 3.357 7.5 7.5s-3.357 7.5-7.5 7.5z" fill="#30579d"/></g></g><g><g><path d="m391.361 427.146h-20.203c-4.143 0-7.5-3.357-7.5-7.5s3.357-7.5 7.5-7.5h20.203c4.143 0 7.5 3.357 7.5 7.5s-3.357 7.5-7.5 7.5z" fill="#30579d"/></g></g><g><g><path d="m391.361 459.472h-20.203c-4.143 0-7.5-3.357-7.5-7.5s3.357-7.5 7.5-7.5h20.203c4.143 0 7.5 3.357 7.5 7.5s-3.357 7.5-7.5 7.5z" fill="#30579d"/></g></g><g><g><circle cx="149.541" cy="136.801" fill="#ac80dd" r="56"/></g><g><path d="m177.944 88.543c4.913 8.329 7.742 18.033 7.742 28.403 0 30.928-25.072 56-56 56-10.37 0-20.074-2.829-28.403-7.742 9.74 16.512 27.7 27.597 48.258 27.597 30.928 0 56-25.072 56-56 0-20.558-11.085-38.518-27.597-48.258z" fill="#9d66d5"/></g></g></g></svg>